<?xml version="1.0" encoding="UTF-8" standalone="no"?>
<svg
   viewBox="0 0 348 348"
   fill="none"
   version="1.1"
   id="svg838"
   sodipodi:docname="Subbly Jubbly.svg"
   inkscape:version="1.1.1 (3bf5ae0d25, 2021-09-20)"
   xmlns:inkscape="http://www.inkscape.org/namespaces/inkscape"
   xmlns:sodipodi="http://sodipodi.sourceforge.net/DTD/sodipodi-0.dtd"
   xmlns="http://www.w3.org/2000/svg"
   xmlns:svg="http://www.w3.org/2000/svg">
  <defs
     id="defs842" />
  <sodipodi:namedview
     id="namedview840"
     pagecolor="#ffffff"
     bordercolor="#666666"
     borderopacity="1.0"
     inkscape:pageshadow="2"
     inkscape:pageopacity="0.0"
     inkscape:pagecheckerboard="0"
     showgrid="false"
     inkscape:zoom="2.25"
     inkscape:cx="173.77778"
     inkscape:cy="174"
     inkscape:window-width="1920"
     inkscape:window-height="1001"
     inkscape:window-x="-9"
     inkscape:window-y="-9"
     inkscape:window-maximized="1"
     inkscape:current-layer="svg838" />
  <path
     d="M5.079 5.776h336.913v337.67H5.08z"
     stroke-width="2"
     stroke="#000"
     id="path834" />
  <path
     d="M282.734 40.554c0-8.376 6.966-15.165 15.56-15.165 4.126 0 8.084 1.597 11.001 4.441 2.918 2.844 4.558 6.702 4.558 10.724 0 8.376-6.966 15.165-15.56 15.165-8.593 0-15.559-6.79-15.559-15.165z"
     stroke-width="2"
     stroke="#000"
     id="path836" />
  <rect
     style="fill:#000000;stroke-width:7.55906"
     id="rect968"
     width="32.888889"
     height="62.222221"
     x="74.444443"
     y="20.888889" />
  <rect
     style="fill:#000000;stroke-width:13.1515"
     id="rect1050"
     width="99.555557"
     height="62.222221"
     x="147.11111"
     y="20.888889" />
  <path
     id="rect1074"
     style="fill:#000000;stroke-width:7.55906"
     d="M 17.333984 97.777344 L 17.333984 330.66602 L 328.44531 330.66602 L 328.44531 97.777344 L 17.333984 97.777344 z M 23.414062 104.88086 L 322.36328 104.88086 L 322.36328 323.5625 L 23.414062 323.5625 L 23.414062 104.88086 z " />
  <rect
     style="fill:#000000;stroke-width:7.55906"
     id="rect1181"
     width="282.66666"
     height="35.111111"
     x="31.111111"
     y="113.11111" />
  <path
     id="path1285"
     style="fill:#000000;stroke-width:7.55906"
     d="M 171.11133 163.55469 A 73.777779 73.777779 0 0 0 97.333984 237.33398 A 73.777779 73.777779 0 0 0 171.11133 311.11133 A 73.777779 73.777779 0 0 0 244.88867 237.33398 A 73.777779 73.777779 0 0 0 171.11133 163.55469 z M 171.11133 174.22266 A 63.111111 63.111111 0 0 1 234.22266 237.33398 A 63.111111 63.111111 0 0 1 171.11133 300.44531 A 63.111111 63.111111 0 0 1 108 237.33398 A 63.111111 63.111111 0 0 1 171.11133 174.22266 z " />
  <path
     id="circle1472"
     style="fill:#000000;stroke-width:5.05454"
     d="M 171.11133 188 A 49.333336 49.333336 0 0 0 121.77734 237.33398 A 49.333336 49.333336 0 0 0 171.11133 286.66602 A 49.333336 49.333336 0 0 0 220.44531 237.33398 A 49.333336 49.333336 0 0 0 171.11133 188 z M 171.11133 198.66602 A 38.666668 38.666668 0 0 1 209.77734 237.33398 A 38.666668 38.666668 0 0 1 171.11133 276 A 38.666668 38.666668 0 0 1 132.44531 237.33398 A 38.666668 38.666668 0 0 1 171.11133 198.66602 z " />
  <path
     style="fill:#000000;stroke-width:0.757976"
     d="m 189.52474,259.37728 c -0.47414,-1.32235 0.81799,-3.60039 2.0422,-3.60039 1.50818,0 2.81336,1.9042 2.27205,3.31482 -0.55531,1.44712 -3.82027,1.66322 -4.31425,0.28557 z m -10.75822,-10.403 -5.24616,-5.28666 1.57744,-1.72462 c 6.59525,-7.21068 5.38514,-18.01754 -2.6492,-23.65841 -2.79626,-1.96325 -3.96045,-2.29572 -8.08014,-2.30759 -4.15027,-0.0119 -5.26624,0.30396 -8.10268,2.29374 -6.31052,4.42685 -8.97076,13.5311 -5.74859,19.67371 2.79065,5.32001 6.17344,7.35078 15.15521,9.09808 1.57468,0.30634 2.08443,0.84555 2.08443,2.20491 0,4.57652 -10.21898,3.14339 -16.61324,-2.32985 -3.56771,-3.05383 -5.52356,-6.50668 -6.80017,-12.00504 -0.72166,-3.10809 -0.6657,-4.60803 0.31098,-8.33774 3.65755,-13.96713 17.62585,-20.14837 29.80824,-13.19072 4.36246,2.49151 7.91107,7.22359 9.30837,12.41275 1.14594,4.25571 0.50331,10.87613 -1.43622,14.7963 l -1.64301,3.32081 3.76066,3.97636 c 2.44993,2.59043 3.6019,4.39013 3.30513,5.16349 -0.94754,2.46928 -3.73282,1.19932 -8.99105,-4.09952 z"
     id="path1527" />
  <path
     style="fill:#000000;stroke-width:0.757976"
     d="m 64.191407,75.821724 c -0.47414,-1.32235 0.81799,-3.60039 2.0422,-3.60039 1.50818,0 2.81336,1.9042 2.27205,3.31482 -0.55531,1.44712 -3.82027,1.66322 -4.31425,0.28557 z m -10.75822,-10.403 -5.24616,-5.28666 1.57744,-1.72462 c 6.59525,-7.21068 5.38514,-18.01754 -2.6492,-23.65841 -2.79626,-1.96325 -3.96045,-2.29572 -8.08014,-2.30759 -4.15027,-0.0119 -5.26624,0.30396 -8.10268,2.29374 -6.31052,4.42685 -8.97076,13.5311 -5.74859,19.67371 2.79065,5.32001 6.17344,7.35078 15.15521,9.09808 1.57468,0.30634 2.08443,0.84555 2.08443,2.20491 0,4.57652 -10.21898,3.14339 -16.61324,-2.32985 -3.56771,-3.05383 -5.52356,-6.50668 -6.80017,-12.00504 -0.72166,-3.10809 -0.6657,-4.60803 0.31098,-8.33774 3.65755,-13.96713 17.62585,-20.14837 29.80824,-13.19072 4.36246,2.49151 7.91107,7.22359 9.30837,12.41275 1.14594,4.25571 0.50331,10.87613 -1.43622,14.7963 l -1.64301,3.32081 3.76066,3.97636 c 2.44993,2.59043 3.6019,4.39013 3.30513,5.16349 -0.94754,2.46928 -3.73282,1.19932 -8.99105,-4.09952 z"
     id="path1627" />
</svg>
